<?xml version="1.0" standalone="no"?>
<!DOCTYPE svg PUBLIC "-//W3C//DTD SVG 1.1//EN" "http://www.w3.org/Graphics/SVG/1.1/DTD/svg11.dtd" >
<svg xmlns="http://www.w3.org/2000/svg">
<metadata></metadata>
<defs>
<font id="franklingoturwtotbooregular" horiz-adv-x="1202" >
<font-face units-per-em="2048" ascent="1638" descent="-410" />
<missing-glyph horiz-adv-x="512" />
<glyph unicode="&#xfb01;" horiz-adv-x="989" d="M6 887v123h178q1 99 7 140.5t24 82.5q35 78 102.5 119t159.5 41q33 0 98 -11v-125q-48 13 -83 13q-100 0 -136 -88q-9 -27 -11.5 -55.5t-2.5 -116.5h233v-123h-233v-887h-158v887h-178zM666 1192v174h170v-174h-170zM672 0v1010h157v-1010h-157z" />
<glyph unicode="&#xfb02;" horiz-adv-x="987" d="M6 887v123h178q1 99 7 140.5t24 82.5q74 160 268 160q38 0 92 -11v-125q-56 11 -81 11q-54 0 -92 -26.5t-50 -72.5q-7 -30 -8.5 -52t-1.5 -107h233v-123h-233v-887h-158v887h-178zM672 0v1366h157v-1366h-157z" />
<glyph horiz-adv-x="0" />
<glyph horiz-adv-x="682" />
<glyph unicode=" "  horiz-adv-x="512" />
<glyph unicode="&#x09;" horiz-adv-x="512" />
<glyph unicode="&#xa0;" horiz-adv-x="512" />
<glyph unicode="!" horiz-adv-x="550" d="M158 1366h235l-78 -1026h-84zM172 0v211h209v-211h-209z" />
<glyph unicode="&#x22;" horiz-adv-x="647" d="M106 1366h160l-30 -528h-99zM383 1366h160l-31 -528h-100z" />
<glyph unicode="#" d="M63 434l23 123h217l51 285h-219l23 123h219l69 401h132l-72 -401h289l71 401h129l-71 -401h213l-23 -123h-209l-51 -285h209l-21 -123h-211l-75 -434h-131l77 434h-290l-78 -434h-129l78 434h-220zM434 557h289l49 285h-287z" />
<glyph unicode="$" d="M96 356l135 54q37 -103 113 -163t180 -67v465q-96 25 -141.5 41.5t-89.5 42.5q-66 38 -103.5 108t-37.5 154q0 94 46.5 172t129.5 121q77 39 196 57v166h121v-166q151 -13 245.5 -77.5t141.5 -184.5l-135 -45q-26 79 -91.5 124.5t-160.5 51.5v-428q100 -23 146 -37 t92 -38q79 -41 127.5 -123t48.5 -174q0 -94 -51 -179t-134 -129q-46 -24 -93.5 -36t-135.5 -23v-193h-121v193q-337 37 -428 313zM297 1010q0 -85 55 -135.5t172 -73.5v409q-109 -12 -168 -63.5t-59 -136.5zM645 180q123 8 191.5 65t68.5 152q0 92 -62.5 144.5t-197.5 74.5 v-436z" />
<glyph unicode="%" horiz-adv-x="1474" d="M76 1026q0 160 76 257t202 97q128 0 206.5 -98.5t78.5 -259.5q0 -154 -79 -253t-202 -99q-125 0 -203.5 99t-78.5 257zM182 1030q0 -133 46.5 -206.5t131.5 -73.5q78 0 124 70t46 192q0 137 -46.5 214t-129.5 77t-127.5 -71t-44.5 -202zM262 0l828 1366h124l-825 -1366 h-127zM840 342q0 160 76 257t202 97t204.5 -98.5t78.5 -259.5q0 -154 -79 -253t-202 -99q-124 0 -202 99t-78 257zM944 346q0 -133 46.5 -206.5t131.5 -73.5q80 0 126 69.5t46 192.5q0 138 -46.5 214t-131.5 76q-82 0 -127 -71t-45 -201z" />
<glyph unicode="&#x26;" horiz-adv-x="1366" d="M88 379q0 143 92 251.5t262 166.5q-69 102 -100 174t-31 135q0 125 87 206t220 81q140 0 228 -81t88 -210q0 -115 -65 -195.5t-222 -158.5l287 -437q73 94 117 197t69 240l146 -31q-20 -123 -95 -276t-157 -236q39 -41 71 -55.5t80 -14.5q24 0 125 8v-143 q-91 -14 -149 -14q-66 0 -105 21t-123 102q-97 -76 -175.5 -106t-184.5 -30q-200 0 -332.5 115.5t-132.5 290.5zM258 387q0 -116 61 -186q40 -45 107.5 -72t140.5 -27q83 0 141.5 23.5t127.5 85.5l-328 483q-141 -65 -195.5 -131.5t-54.5 -175.5zM457 1114q0 -49 22 -97 t99 -171q84 48 120 74q107 70 107 172q0 74 -52 124t-128 50q-72 0 -120 -43.5t-48 -108.5z" />
<glyph unicode="'" horiz-adv-x="370" d="M106 1366h160l-30 -528h-99z" />
<glyph unicode="(" horiz-adv-x="600" d="M106 512q0 451 293 854h105q-129 -201 -190.5 -407t-61.5 -439t61.5 -442t192.5 -420h-105q-295 386 -295 854z" />
<glyph unicode=")" horiz-adv-x="600" d="M94 1366h105q295 -386 295 -854q0 -451 -293 -854h-105q129 201 190.5 407t61.5 439t-61.5 442t-192.5 420z" />
<glyph unicode="*" d="M160 1001l47 144l354 -156l-39 377h156l-39 -377l354 156l47 -144l-387 -77l256 -281l-125 -88l-184 324l-184 -324l-125 88l256 281z" />
<glyph unicode="+" d="M123 614v140h403v420h150v-420h403v-140h-403v-419h-150v419h-403z" />
<glyph unicode="," horiz-adv-x="512" d="M131 -256l119 256h-103v227h220v-204l-150 -279h-86z" />
<glyph unicode="-" horiz-adv-x="512" d="M31 451v122h452v-122h-452z" />
<glyph unicode="." horiz-adv-x="512" d="M145 0v223h224v-223h-224z" />
<glyph unicode="/" horiz-adv-x="929" d="M-96 -342l823 1708h135l-825 -1708h-133z" />
<glyph unicode="0" d="M84 686q0 258 100 447q136 260 412 260q282 0 418 -260q104 -203 104 -457q0 -117 -29 -237t-81 -214q-65 -120 -171 -186t-235 -66q-151 0 -269 90t-183.5 252.5t-65.5 370.5zM258 690q0 -275 91.5 -429.5t254.5 -154.5q199 0 283 216q55 143 55 331q0 241 -70 406 q-41 98 -111.5 149.5t-164.5 51.5q-161 0 -249.5 -150t-88.5 -420z" />
<glyph unicode="1" d="M188 0v127h410v1055q-180 -186 -375 -295v172q261 136 416 334h123v-1266h383v-127h-957z" />
<glyph unicode="2" d="M106 0v141q217 162 274.5 207t176.5 144q200 168 272 269t72 218q0 118 -88 198t-219 80q-78 0 -147 -34.5t-115 -96.5q-31 -40 -45.5 -80t-20.5 -102l-160 49q23 92 49 145t72 103q66 74 161.5 113t207.5 39q204 0 339.5 -117.5t135.5 -294.5q0 -145 -86.5 -270 t-316.5 -312q-187 -146 -346 -258h753v-141h-969z" />
<glyph unicode="3" d="M61 305l160 53q44 -133 127.5 -189t237.5 -56t244 70.5t90 191.5q0 124 -97.5 195t-269.5 71h-156v137h156q152 0 234.5 62.5t82.5 177.5q0 106 -79 172.5t-205 66.5q-74 0 -140.5 -27t-111.5 -75q-39 -41 -68 -119l-155 43q34 79 67 124.5t86 86.5q136 103 336 103 q193 0 318.5 -103t125.5 -260q0 -118 -69.5 -200.5t-192.5 -110.5q149 -28 232.5 -117.5t83.5 -222.5q0 -181 -143.5 -293.5t-374.5 -112.5q-212 0 -361 113q-60 46 -93.5 92.5t-64.5 126.5z" />
<glyph unicode="4" d="M63 326v114l625 955h215v-934h221v-135h-221v-326h-166v326h-674zM242 461h495v645q0 83 4 151q-58 -104 -73 -129z" />
<glyph unicode="5" d="M88 295l145 51q51 -122 133 -179.5t205 -57.5q160 0 257.5 95.5t97.5 250.5q0 145 -90.5 237t-231.5 92q-100 0 -177.5 -45t-143.5 -141l-136 29l46 739h808l-14 -147h-672l-28 -443q89 83 163 116.5t171 33.5q200 0 335.5 -136t135.5 -337q0 -207 -148.5 -343.5 t-372.5 -136.5q-222 0 -368 140q-44 41 -68.5 80t-46.5 102z" />
<glyph unicode="6" d="M104 651q0 174 46 326.5t129 251.5q135 164 378 164q328 0 441 -308l-154 -41q-44 107 -113.5 157t-175.5 50q-117 0 -203 -63t-133 -184q-54 -136 -57 -386q35 71 62.5 109t72.5 74q123 94 279 94q186 0 314 -131t128 -320q0 -200 -140 -335.5t-345 -135.5 q-243 0 -386 183t-143 495zM301 426q0 -132 96 -223.5t234 -91.5t234 93t96 226q0 138 -91 233t-223 95q-141 0 -243.5 -98.5t-102.5 -233.5z" />
<glyph unicode="7" d="M141 1217l19 149h901v-102q-148 -174 -279 -420q-95 -180 -151 -395.5t-56 -403.5v-45h-176v39q0 149 44.5 334.5t119.5 351.5q58 126 146.5 262.5t173.5 229.5h-742z" />
<glyph unicode="8" d="M74 354q0 230 323 355q-258 113 -258 329q0 158 130 256.5t341 98.5q207 0 332 -95.5t125 -253.5q0 -218 -264 -311q128 -61 188 -104q63 -46 99 -118.5t36 -152.5q0 -172 -144.5 -278.5t-377.5 -106.5t-381.5 107t-148.5 274zM242 346q0 -110 97.5 -177t260.5 -67 q162 0 260 65t98 171q0 101 -89.5 173t-282.5 126q-344 -82 -344 -291zM311 1053q0 -87 79 -156.5t214 -101.5q167 43 240.5 103.5t73.5 154.5q0 97 -82 154t-220 57t-221.5 -58t-83.5 -153z" />
<glyph unicode="9" d="M84 924q0 201 137.5 335t341.5 134q108 0 203 -37t158 -103q82 -85 127 -226.5t45 -311.5q0 -312 -135 -525q-65 -103 -177 -161t-245 -58q-173 0 -295 92q-45 36 -72 76t-55 111l137 49q84 -190 285 -190q189 0 291 156t106 454q-75 -128 -172 -187t-232 -59 q-192 0 -320 129.5t-128 321.5zM250 926q0 -137 91 -226.5t230 -89.5q135 0 232.5 96.5t97.5 229.5q0 136 -92.5 225.5t-233.5 89.5q-146 0 -235.5 -89.5t-89.5 -235.5z" />
<glyph unicode=":" horiz-adv-x="512" d="M145 0v225h224v-225h-224zM145 786v224h224v-224h-224z" />
<glyph unicode=";" horiz-adv-x="512" d="M131 -256l117 256h-103v227h220v-204l-152 -279h-82zM145 788v222h220v-222h-220z" />
<glyph unicode="&#x3c;" d="M137 610v133l887 416v-151l-723 -332l723 -330v-153z" />
<glyph unicode="=" d="M123 469v137h956v-137h-956zM123 793v137h956v-137h-956z" />
<glyph unicode="&#x3e;" d="M178 193v153l723 330l-723 332v151l887 -416v-133z" />
<glyph unicode="?" horiz-adv-x="1034" d="M41 989q19 99 46 157.5t79 113.5q124 133 340 133q201 0 324.5 -107.5t123.5 -281.5q0 -114 -62 -200t-194 -157q-117 -64 -140 -95t-21 -122v-41v-49h-144v43q0 108 4 144t21 83q9 31 49 68q52 39 78 49l88 49q70 39 107.5 100.5t37.5 133.5q0 106 -78 174.5t-198 68.5 q-69 0 -132.5 -27.5t-101.5 -74.5q-27 -36 -44 -77.5t-34 -115.5zM369 0v197h202v-197h-202z" />
<glyph unicode="@" horiz-adv-x="1525" d="M82 684q0 196 94 359t257.5 256.5t361.5 93.5q136 0 256.5 -47t206.5 -128.5t136 -195.5t50 -242q0 -131 -47 -244.5t-126.5 -181t-170.5 -67.5q-118 0 -162 121q-54 -69 -104.5 -97t-120.5 -28q-135 0 -224.5 106t-89.5 266q0 172 101 288t252 116q72 0 122 -27t93 -90 l12 100h133l-55 -467q-6 -50 -6 -90q0 -69 67 -69q78 0 140.5 109t62.5 245q0 218 -148 359t-378 141q-121 0 -228.5 -45.5t-184.5 -123.5t-122 -186.5t-45 -230.5q0 -160 75.5 -296t207.5 -212q136 -76 323 -76q126 0 214 22t235 89l43 -121q-129 -63 -242.5 -90 t-247.5 -27q-228 0 -399 97q-159 92 -250.5 256.5t-91.5 357.5zM555 649q0 -101 47.5 -167t120.5 -66q86 0 151.5 88t65.5 205q0 95 -49 156t-125 61q-91 0 -151 -79t-60 -198z" />
<glyph unicode="A" horiz-adv-x="1128" d="M6 0l443 1366h196l445 -1366h-177l-137 399h-506l-120 -399h-144zM319 528h420l-209 656z" />
<glyph unicode="B" horiz-adv-x="1239" d="M170 0v1366h541q87 0 145 -14.5t111 -48.5q70 -47 107.5 -117t37.5 -154q0 -66 -26 -128t-70 -103q-48 -43 -146 -76q72 -20 108.5 -39t70.5 -53q104 -107 104 -254q0 -103 -44.5 -185t-127.5 -133q-102 -61 -272 -61h-539zM336 150h366q131 0 205 62.5t74 174.5 q0 111 -72 186q-39 42 -92 60t-139 18h-342v-501zM336 780h297q85 0 136.5 11.5t88.5 39.5q38 29 61 78.5t23 104.5q0 101 -69.5 157t-196.5 56h-340v-447z" />
<glyph unicode="C" horiz-adv-x="1185" d="M86 696q0 317 154.5 507t412.5 190q384 0 492 -439l-160 -30q-51 171 -129.5 247t-204.5 76q-178 0 -278.5 -151t-100.5 -418q0 -255 101.5 -407t271.5 -152q74 0 142.5 34t109.5 91q31 43 50 87.5t42 127.5l156 -35q-63 -232 -185.5 -341.5t-318.5 -109.5 q-235 0 -375 166q-88 104 -134 247.5t-46 309.5z" />
<glyph unicode="D" horiz-adv-x="1325" d="M170 0v1366h457q128 0 225.5 -36t179.5 -113q100 -95 153.5 -231.5t53.5 -297.5q0 -195 -71.5 -352.5t-199 -246.5t-284.5 -89h-514zM340 145h278q92 0 170.5 29.5t129.5 83.5q69 72 108 187t39 243q0 257 -143 416q-110 119 -306 119h-276v-1078z" />
<glyph unicode="E" horiz-adv-x="1122" d="M170 0v1366h864v-149h-694v-437h551v-139h-551v-491h713v-150h-883z" />
<glyph unicode="F" horiz-adv-x="1040" d="M170 0v1366h836v-149h-666v-433h553v-137h-553v-647h-170z" />
<glyph unicode="G" horiz-adv-x="1325" d="M86 668q0 215 74 379.5t208.5 255t309.5 90.5q231 0 371 -158q43 -50 68 -100.5t50 -137.5l-161 -39q-19 71 -37.5 109.5t-50.5 73.5q-98 106 -256 106q-97 0 -176.5 -46.5t-123.5 -129.5q-90 -161 -90 -397q0 -261 107.5 -412t292.5 -151q151 0 243.5 99t92.5 261 q0 45 -2 74h-336v143h512v-706h-107l-45 172q-74 -97 -163 -140t-218 -43q-237 0 -389 174q-174 201 -174 523z" />
<glyph unicode="H" horiz-adv-x="1316" d="M170 0v1366h170v-565h635v565h170v-1366h-170v651h-635v-651h-170z" />
<glyph unicode="I" horiz-adv-x="512" d="M170 0v1366h170v-1366h-170z" />
<glyph unicode="J" horiz-adv-x="763" d="M0 0v139q103 -18 182 -18q156 0 213 78q28 35 35.5 75t7.5 144v948h170v-948q0 -227 -100 -336t-311 -109q-84 0 -197 27z" />
<glyph unicode="K" horiz-adv-x="1286" d="M170 0v1366h170v-793l618 793h185l-371 -479l477 -887h-188l-408 754l-313 -389v-365h-170z" />
<glyph unicode="L" horiz-adv-x="1003" d="M170 0v1366h174v-1216h631v-150h-805z" />
<glyph unicode="M" horiz-adv-x="1658" d="M170 0v1366h254l410 -1092l403 1092h250v-1366h-166v1192l-442 -1192h-117l-447 1192v-1192h-145z" />
<glyph unicode="N" horiz-adv-x="1345" d="M170 0v1366h213l661 -1114l-2 94q-2 51 -2 100v920h136v-1366h-166l-707 1190l2 -90q2 -45 2 -86v-1014h-137z" />
<glyph unicode="O" horiz-adv-x="1292" d="M86 680q0 316 156 514.5t405 198.5q252 0 405.5 -194.5t153.5 -514.5q0 -155 -47.5 -296t-134.5 -243q-144 -172 -381 -172q-244 0 -389 177q-168 208 -168 530zM264 678q0 -255 105 -410t278 -155q172 0 276.5 157t104.5 416q0 266 -101.5 416.5t-281.5 150.5 q-173 0 -277 -157t-104 -418z" />
<glyph unicode="P" horiz-adv-x="1144" d="M170 0v1366h483q184 0 293 -86q68 -53 109 -141t41 -181q0 -177 -119 -290t-305 -113h-332v-555h-170zM340 696h313q122 0 195.5 72t73.5 190q0 117 -71 191t-185 74h-326v-527z" />
<glyph unicode="Q" horiz-adv-x="1304" d="M86 678q0 321 156 518t411 197t411.5 -193.5t156.5 -509.5q0 -348 -189 -549q-50 -56 -100.5 -86t-136.5 -55v-33q0 -51 30 -92q23 -31 58 -43t98 -12q81 0 152 12v-137q-95 -23 -148 -23q-71 0 -134 19t-103 53q-43 37 -64.5 90t-28.5 143q-115 7 -187.5 32t-141.5 81 q-240 190 -240 588zM268 672q0 -258 99 -404.5t274 -146.5q186 0 290.5 147.5t104.5 409.5q0 271 -99 418t-282 147q-92 0 -166 -36.5t-118 -102.5q-48 -72 -75.5 -188t-27.5 -244z" />
<glyph unicode="R" horiz-adv-x="1255" d="M170 0v1366h537q192 0 312 -106.5t120 -276.5q0 -67 -26 -136t-69 -116q-30 -35 -64 -55.5t-95 -42.5l268 -633h-180l-252 592h-391v-592h-160zM330 731h356q131 0 207 69t76 187q0 106 -70.5 168t-191.5 62h-377v-486z" />
<glyph unicode="S" horiz-adv-x="1165" d="M20 365l154 32q93 -278 404 -278q154 0 240.5 66.5t86.5 183.5q0 78 -54.5 134t-154.5 81l-272 69q-83 20 -133.5 43.5t-91.5 59.5q-111 105 -111 264q0 167 127 270t334 103q183 0 306.5 -85t180.5 -251l-153 -43q-13 53 -32 85t-54 62q-106 92 -254 92q-125 0 -207 -63 t-82 -160q0 -82 51.5 -130t171.5 -77l254 -61q352 -83 352 -377q0 -188 -137.5 -300t-367.5 -112q-249 0 -400 136q-54 51 -87.5 105.5t-70.5 150.5z" />
<glyph unicode="T" horiz-adv-x="993" d="M20 1217v149h953v-149h-391v-1217h-170v1217h-392z" />
<glyph unicode="U" horiz-adv-x="1241" d="M150 473v893h169v-893q0 -177 56 -250q35 -46 104.5 -73t149.5 -27q79 0 145.5 26.5t106.5 73.5q36 42 51.5 100t15.5 150v893h142v-893q0 -117 -21.5 -195t-71.5 -143q-122 -162 -383 -162q-238 0 -351 122t-113 378z" />
<glyph unicode="V" horiz-adv-x="1099" d="M6 1366h178l381 -1126l377 1126h150l-461 -1366h-164z" />
<glyph unicode="W" horiz-adv-x="1673" d="M39 1366h176l274 -1106l291 1106h138l313 -1106l254 1106h149l-327 -1366h-172l-297 1059l-279 -1059h-174z" />
<glyph unicode="X" horiz-adv-x="1064" d="M4 0l438 707l-391 659h191l301 -506l305 506h156l-383 -625l438 -741h-193l-346 582l-356 -582h-160z" />
<glyph unicode="Y" horiz-adv-x="1044" d="M-20 1366h200l363 -629l364 629h156l-457 -791v-575h-170v575z" />
<glyph unicode="Z" horiz-adv-x="1067" d="M55 0v145l742 1072h-707v139h905v-113l-749 -1098h772v-145h-963z" />
<glyph unicode="[" horiz-adv-x="600" d="M162 -342v1708h354v-102h-217v-1497h217v-109h-354z" />
<glyph unicode="\" horiz-adv-x="929" d="M68 1366h133l825 -1708h-135z" />
<glyph unicode="]" horiz-adv-x="600" d="M84 -240h217v1497h-217v109h354v-1708h-354v102z" />
<glyph unicode="^" horiz-adv-x="1024" d="M51 745l361 625h202l361 -625h-166l-297 504l-295 -504h-166z" />
<glyph unicode="_" horiz-adv-x="1024" d="M0 -135h1024v-137h-1024v137z" />
<glyph unicode="`" horiz-adv-x="1024" d="M188 1356l62 121l395 -230l-41 -80z" />
<glyph unicode="a" horiz-adv-x="1083" d="M68 279q0 89 48 164.5t130 115.5q137 70 397 70q68 0 131 -4v32q0 143 -59.5 202t-204.5 59q-229 0 -270 -185l-146 25q10 57 27 91t49 66q120 123 375 123q226 0 313 -118q37 -51 52.5 -118t15.5 -177v-428q0 -113 22 -197h-155q-10 47 -19 182q-61 -112 -143 -160.5 t-211 -48.5q-156 0 -254 85.5t-98 220.5zM236 274q0 -82 58.5 -131t156.5 -49q138 0 231.5 100t93.5 246q0 39 -2 66q-106 4 -133 4q-197 0 -301 -60.5t-104 -175.5z" />
<glyph unicode="b" horiz-adv-x="1099" d="M158 0v1366h157v-524q62 104 130.5 149t166.5 45q183 0 296.5 -145.5t113.5 -380.5q0 -236 -116.5 -386.5t-299.5 -150.5q-102 0 -178.5 47.5t-136.5 147.5l-58 -168h-75zM315 395q7 -70 20.5 -109.5t41.5 -78.5q37 -47 95 -76t118 -29q122 0 194 105t72 282 q0 94 -22 180.5t-60 143.5q-29 43 -79 68.5t-105 25.5q-106 0 -180.5 -77t-94.5 -207v-228z" />
<glyph unicode="c" horiz-adv-x="954" d="M78 504q0 240 119 386t315 146q155 0 253.5 -90t129.5 -262l-141 -27q-40 250 -244 250q-124 0 -196 -107t-72 -292q0 -191 70 -298.5t196 -107.5q96 0 158.5 64t87.5 188l141 -24q-19 -92 -44.5 -145.5t-74.5 -102.5q-106 -109 -272 -109q-194 0 -310 145t-116 386z" />
<glyph unicode="d" horiz-adv-x="1101" d="M76 496q0 239 115 389.5t298 150.5q95 0 162 -37t135 -127v494h158v-1366h-143v172q-63 -108 -137.5 -154.5t-182.5 -46.5q-178 0 -291.5 147t-113.5 378zM248 516q0 -197 68.5 -306.5t191.5 -109.5q115 0 205 103q36 44 51.5 87.5t21.5 119.5v211q-6 72 -18 111t-41 75 q-35 47 -94 75.5t-119 28.5q-121 0 -193.5 -107.5t-72.5 -287.5z" />
<glyph unicode="e" horiz-adv-x="1064" d="M78 500q0 237 131 386.5t338 149.5q130 0 231 -63.5t154 -179.5q29 -64 41 -132t14 -169h-735q0 -89 9 -138.5t32 -97.5q34 -69 105 -111.5t153 -42.5q97 0 162.5 48t109.5 151l146 -31q-50 -140 -162.5 -218.5t-265.5 -78.5q-207 0 -335 145.5t-128 381.5zM260 608h555 q-3 143 -74 225t-192 82q-133 0 -217 -104q-33 -42 -48.5 -86t-23.5 -117z" />
<glyph unicode="f" horiz-adv-x="614" d="M6 887v123h178q3 94 9.5 137.5t23.5 87.5q26 74 98 117t170 43q45 0 150 -15v-127q-54 15 -94 15q-158 0 -193 -97q-13 -33 -15.5 -55t-2.5 -106h245v-123h-245v-887h-146v887h-178z" />
<glyph unicode="g" horiz-adv-x="1005" d="M51 -115q0 73 37 121.5t117 79.5q-56 40 -77.5 76t-21.5 88q0 61 31.5 101t108.5 77q-71 62 -101 123.5t-30 144.5q0 148 109.5 246t275.5 98q113 0 207 -47q14 85 65 133q26 24 63 33.5t105 9.5q21 0 41 -2v-125h-15q-88 0 -126 -22q-42 -25 -52 -92q97 -114 97 -244 q0 -147 -109 -241.5t-278 -94.5q-40 0 -70 6q-61 11 -66 11q-40 0 -73 -30t-33 -67q0 -51 55 -75q27 -11 76 -16t182 -9q161 -4 230 -17t119 -47q102 -73 102 -196q0 -143 -128 -216t-380 -73q-226 0 -343.5 68t-117.5 198zM203 -98q0 -57 37 -86q41 -35 117.5 -55.5 t166.5 -20.5q127 0 240 37q106 35 106 125q0 66 -75 100q-36 14 -74 18t-164 7q-159 3 -244 14q-62 -30 -86 -60.5t-24 -78.5zM276 690q0 -100 62.5 -160.5t163.5 -60.5q98 0 161.5 61t63.5 156q0 99 -63.5 164t-159.5 65q-100 0 -164 -63t-64 -162z" />
<glyph unicode="h" horiz-adv-x="1105" d="M158 0v1366h157v-543q61 115 133.5 165t176.5 50q84 0 152.5 -34.5t111.5 -98.5q38 -55 49.5 -110.5t11.5 -182.5v-612h-157v612q0 129 -21 183q-20 51 -68.5 81.5t-107.5 30.5q-53 0 -106 -26t-91 -70q-84 -97 -84 -266v-545h-157z" />
<glyph unicode="i" horiz-adv-x="468" d="M150 1192v174h169v-174h-169zM156 0v1010h157v-1010h-157z" />
<glyph unicode="j" horiz-adv-x="468" d="M-125 -205q68 -16 115 -16q89 0 127.5 44t38.5 144v1055h157v-1055q0 -317 -295 -317q-46 0 -143 20v125zM143 1192v174h179v-174h-179z" />
<glyph unicode="k" horiz-adv-x="1026" d="M158 0v1366h157v-874l469 518h168l-315 -357l356 -653h-164l-294 563l-220 -252v-311h-157z" />
<glyph unicode="l" horiz-adv-x="471" d="M158 0v1366h157v-1366h-157z" />
<glyph unicode="m" horiz-adv-x="1667" d="M158 0v1010h135v-195q110 221 311 221q106 0 180 -63t103 -178q51 118 132.5 179.5t186.5 61.5q82 0 153 -40t109 -109q25 -44 34 -99t9 -161v-627h-153v627q0 82 -6 116t-27 68q-24 41 -69 65.5t-93 24.5q-98 0 -180 -88q-43 -50 -60.5 -104.5t-17.5 -139.5v-569h-151 v664q0 116 -52 176q-61 67 -147 67q-104 0 -176 -88t-72 -215v-604h-149z" />
<glyph unicode="n" horiz-adv-x="1110" d="M158 0v1010h145v-187q78 120 149 166.5t175 46.5q97 0 176 -48.5t119 -133.5q32 -71 32 -270v-584h-147v649q0 123 -54 187.5t-155 64.5q-123 0 -203 -98t-80 -248v-555h-157z" />
<glyph unicode="o" horiz-adv-x="1062" d="M78 508q0 235 127 381.5t330 146.5q205 0 327.5 -147t122.5 -395q0 -227 -131.5 -374t-335.5 -147q-198 0 -319 147t-121 388zM250 510q0 -195 73 -301.5t207 -106.5q132 0 207.5 106.5t75.5 293.5q0 194 -72 297q-38 51 -94.5 79.5t-118.5 28.5q-60 0 -117 -29.5 t-92 -80.5q-69 -101 -69 -287z" />
<glyph unicode="p" horiz-adv-x="1093" d="M158 -342v1352h141v-197q60 117 135.5 170t181.5 53q180 0 291 -146.5t111 -383.5q0 -238 -112 -385.5t-292 -147.5q-98 0 -166 41.5t-133 139.5v-496h-157zM315 367q19 -115 95.5 -190t173.5 -75q50 0 101.5 26.5t84.5 68.5q76 98 76 299q0 190 -69.5 296.5 t-192.5 106.5q-94 0 -166 -66.5t-103 -183.5v-282z" />
<glyph unicode="q" horiz-adv-x="1097" d="M78 498q0 241 115 390.5t301 149.5q105 0 171 -41.5t134 -152.5l61 180h80v-1366h-158v526q-102 -211 -305 -211q-180 0 -289.5 144.5t-109.5 380.5zM250 504q0 -182 70 -288.5t190 -106.5q69 0 126.5 37t94.5 104q24 42 34.5 83t16.5 116v135q-9 94 -26.5 144t-55.5 93 q-37 40 -87 63t-101 23q-118 0 -190 -110.5t-72 -292.5z" />
<glyph unicode="r" horiz-adv-x="673" d="M158 0v1010h137v-236q60 123 104 176q34 40 87.5 64t111.5 24q11 0 57 -4v-149q-15 1 -30 1q-123 0 -209 -90q-98 -100 -101 -261v-535h-157z" />
<glyph unicode="s" horiz-adv-x="950" d="M20 262l150 31q22 -79 66 -115q43 -35 109.5 -55.5t137.5 -20.5q106 0 172 45.5t66 118.5q0 121 -174 156l-213 39q-129 25 -201 98t-72 180q0 134 104.5 215.5t276.5 81.5q158 0 259.5 -65t138.5 -191l-144 -30q-35 81 -98 119t-160 38q-98 0 -157.5 -41t-59.5 -108 q0 -112 158 -142l199 -34q307 -55 307 -299q0 -138 -114.5 -224t-301.5 -86q-216 0 -344 113q-40 34 -63 72.5t-42 103.5z" />
<glyph unicode="t" horiz-adv-x="630" d="M-2 887v123h178l6 254l148 12v-266h227v-123h-227v-633q0 -158 164 -158q48 0 120 13v-125q-91 -13 -149 -13q-143 0 -216 78t-73 230v608h-178z" />
<glyph unicode="u" horiz-adv-x="1107" d="M158 365v645h157v-645q0 -137 56 -199q61 -64 143 -64q117 0 199 99t82 239v570h157v-1010h-141v193q-111 -220 -322 -220q-154 0 -242.5 104.5t-88.5 287.5z" />
<glyph unicode="v" horiz-adv-x="921" d="M25 1010h174l280 -822l279 822h139l-348 -1010h-164z" />
<glyph unicode="w" horiz-adv-x="1359" d="M39 1010h158l219 -752l211 752h114l226 -756l227 756h127l-291 -1010h-127l-225 750l-207 -750h-129z" />
<glyph unicode="x" horiz-adv-x="868" d="M6 0l340 524l-307 486h180l217 -344l219 344h152l-295 -453l348 -557h-182l-256 410l-262 -410h-154z" />
<glyph unicode="y" horiz-adv-x="849" d="M10 1010h160l270 -760l277 760h133l-406 -1129q-51 -144 -145 -207q-48 -34 -152 -34q-47 0 -118 16v125q69 -14 104 -14q88 0 133 49.5t94 201.5z" />
<glyph unicode="z" horiz-adv-x="866" d="M68 0v121l536 766h-495v123h702v-86l-555 -803h555v-121h-743z" />
<glyph unicode="{" horiz-adv-x="600" d="M119 465v98q63 17 90 58.5t27 121.5v355q0 141 66.5 204.5t215.5 63.5h43v-106q-110 -1 -149 -38.5t-39 -140.5v-346q0 -93 -27.5 -141.5t-99.5 -83.5q70 -34 98.5 -85t28.5 -144v-332q0 -109 37.5 -146.5t150.5 -38.5v-106h-43q-154 0 -218 66.5t-64 226.5v328 q0 85 -26.5 127t-90.5 59z" />
<glyph unicode="|" horiz-adv-x="1024" d="M436 -342v1708h154v-1708h-154z" />
<glyph unicode="}" horiz-adv-x="600" d="M41 -236q110 1 149 38.5t39 140.5v346q0 93 27.5 141.5t99.5 83.5q-70 34 -98.5 85t-28.5 144v332q0 109 -37.5 146.5t-150.5 38.5v106h43q154 0 218.5 -66.5t64.5 -226.5v-328q0 -85 26 -127t90 -59v-98q-63 -17 -89.5 -58.5t-26.5 -121.5v-355q0 -141 -67 -204.5 t-216 -63.5h-43v106z" />
<glyph unicode="~" d="M109 586q60 128 124.5 182.5t155.5 54.5q85 0 229 -69q139 -64 199 -64q57 0 97.5 30t86.5 107l93 -55q-57 -109 -115 -164q-31 -29 -78.5 -48t-89.5 -19q-47 0 -100.5 17.5t-153.5 64.5q-112 53 -180 53q-51 0 -91.5 -34t-86.5 -116z" />
<glyph unicode="&#xa1;" horiz-adv-x="550" d="M158 -342l78 1026h83l74 -1026h-235zM172 799v211h209v-211h-209z" />
<glyph unicode="&#xa2;" d="M197 696q0 119 37 218t106 163q43 40 90.5 62t124.5 35v249h113v-249q126 -13 213.5 -98.5t109.5 -213.5l-137 -26q-17 89 -70.5 152.5t-115.5 68.5v-709q70 12 120.5 70.5t65.5 144.5l137 -20q-32 -141 -111.5 -219.5t-211.5 -98.5v-282h-113v282q-76 13 -121 33t-88 59 q-149 137 -149 379zM354 694q0 -146 49 -230.5t152 -115.5v705q-95 -19 -148 -113.5t-53 -245.5z" />
<glyph unicode="&#xa3;" d="M-4 0v147l49 3q104 1 158 18t104 63q46 44 66 95.5t20 126.5q0 46 -18 196h-219v117l206 2q-18 111 -18 190q0 192 104 313.5t269 121.5q100 0 177.5 -44.5t149.5 -142.5l-112 -86q-62 77 -106 106t-101 29q-88 0 -145.5 -68t-57.5 -171q0 -64 13 -174l8 -74l293 -2v-117 h-279q6 -102 6 -141q0 -122 -37 -205t-123 -153h320q134 0 205.5 34t120.5 121l131 -84q-53 -106 -145 -163.5t-210 -57.5h-829z" />
<glyph unicode="&#xa4;" horiz-adv-x="1366" d="M100 1227l93 92l196 -197q93 60 153.5 81.5t141.5 21.5t141 -21t150 -80l196 195l93 -92l-197 -195q59 -88 80.5 -150t21.5 -141q0 -78 -21 -138.5t-79 -149.5l197 -197l-90 -92l-197 196q-83 -57 -148 -79.5t-145 -22.5q-77 0 -141.5 21.5t-153.5 78.5l-196 -194l-91 92 l195 195q-55 78 -78.5 145t-23.5 147q0 77 21.5 140t78.5 147zM338 741q0 -142 101.5 -244t242.5 -102q144 0 245 101.5t101 244.5q0 141 -100.5 243.5t-239.5 102.5q-147 0 -248.5 -100.5t-101.5 -245.5z" />
<glyph unicode="&#xa5;" d="M59 1366h201l363 -629l364 629h156l-299 -520h252v-117h-322l-88 -158l410 -2v-118h-412v-451h-164v451h-414v118l412 2l-90 158h-322v117h254z" />
<glyph unicode="&#xa6;" horiz-adv-x="1024" d="M436 313h154v-655h-154v655zM436 682v684h154v-684h-154z" />
<glyph unicode="&#xa7;" d="M135 -72l176 25q23 -48 42.5 -73t54.5 -52q93 -68 213 -68t202 62.5t82 154.5q0 71 -51.5 118.5t-159.5 76.5l-207 55q-161 43 -235 114t-74 181q0 91 44.5 158.5t148.5 136.5q-87 52 -125.5 114t-38.5 150q0 143 105 228.5t280 85.5q158 0 264.5 -69t149.5 -198 l-152 -18q-38 89 -102 129.5t-164 40.5t-164 -49t-64 -125q0 -148 244 -217l184 -51q117 -32 183.5 -107.5t66.5 -173.5q0 -74 -37.5 -136.5t-126.5 -137.5q195 -91 195 -281q0 -160 -131 -265.5t-330 -105.5q-354 0 -473 297zM336 569q0 -67 52 -113.5t165 -78.5l197 -55 q68 35 104.5 85t36.5 107q0 58 -49 109.5t-129 76.5l-221 68q-81 -42 -118.5 -90.5t-37.5 -108.5z" />
<glyph unicode="&#xa8;" horiz-adv-x="1024" d="M248 1305q0 43 29.5 72.5t72.5 29.5q42 0 72.5 -30t30.5 -72q0 -41 -31 -72t-72 -31q-43 0 -72.5 30t-29.5 73zM565 1307q0 42 31 72t74 30q41 0 71.5 -30.5t30.5 -71.5q0 -43 -30.5 -74t-73.5 -31q-41 0 -72 31t-31 74z" />
<glyph unicode="&#xa9;" horiz-adv-x="1583" d="M86 688q0 191 96 352.5t261 255t360 93.5q139 0 267.5 -56.5t222 -151.5t149 -225.5t55.5 -271.5q0 -144 -55.5 -275t-150 -225.5t-225 -150.5t-273.5 -56q-145 0 -276 56t-225.5 151t-150 226.5t-55.5 277.5zM186 688q0 -125 47.5 -238t128.5 -194.5t193.5 -129.5 t237.5 -48q164 0 303 81t220 220.5t81 304.5q0 161 -81 300.5t-218.5 221.5t-296.5 82q-289 0 -473 -217q-68 -80 -105 -180t-37 -203zM422 690q0 190 99 304t265 114q252 0 320 -270l-121 -23q-31 103 -78 149t-123 46q-106 0 -165.5 -88t-59.5 -242q0 -149 60.5 -237.5 t160.5 -88.5q78 0 132.5 53.5t76.5 151.5l117 -24q-38 -142 -118 -210.5t-208 -68.5q-161 0 -259.5 119.5t-98.5 314.5z" />
<glyph unicode="&#xaa;" horiz-adv-x="714" d="M49 938q0 54 32 100.5t87 71.5q90 41 252 41h69q1 89 -31 122.5t-120 33.5q-73 0 -109 -24.5t-51 -84.5l-112 19q12 55 34 86q77 90 254 90q137 0 194.5 -57t57.5 -193v-254q0 -56 17 -123h-121q-6 43 -10 82q-68 -98 -211 -98q-103 0 -167.5 52t-64.5 136zM176 934 q0 -45 33 -71.5t90 -26.5q82 0 137.5 56.5t55.5 139.5q0 15 -3 33l-71 2q-242 0 -242 -133z" />
<glyph unicode="&#xab;" horiz-adv-x="704" d="M82 532l172 283h90l-106 -283l106 -292h-90zM344 532l172 283h92l-106 -283l106 -292h-90z" />
<glyph unicode="&#xac;" d="M158 408v137h886v-545h-153v408h-733z" />
<glyph unicode="&#xad;" horiz-adv-x="512" d="M31 451v122h452v-122h-452z" />
<glyph unicode="&#xae;" horiz-adv-x="1583" d="M86 688q0 191 96 352.5t261 255t360 93.5q139 0 267.5 -56.5t222 -151.5t149 -225.5t55.5 -271.5q0 -144 -55.5 -275t-150 -225.5t-225 -150.5t-273.5 -56q-145 0 -276 56t-225.5 151t-150 226.5t-55.5 277.5zM186 688q0 -125 47.5 -238t128.5 -194.5t193.5 -129.5 t237.5 -48q164 0 303 81t220 220.5t81 304.5q0 161 -81 300.5t-218.5 221.5t-296.5 82q-289 0 -473 -217q-68 -80 -105 -180t-37 -203zM487 272v820h347q123 0 200.5 -65.5t77.5 -168.5q0 -74 -41.5 -129.5t-116.5 -81.5l170 -375h-135l-155 349h-226v-349h-121zM608 717 h211q76 0 120 38.5t44 104.5q0 60 -40 94.5t-109 34.5h-226v-272z" />
<glyph unicode="&#xaf;" horiz-adv-x="1024" d="M201 1237v109h620v-109h-620z" />
<glyph unicode="&#xb0;" d="M330 1122q0 113 79 192t193 79q112 0 191 -79t79 -192q0 -114 -79.5 -192t-196.5 -78q-109 0 -187.5 80t-78.5 190zM446 1122q0 -63 44.5 -108t107.5 -45q66 0 112 44.5t46 110.5q0 63 -46 108.5t-110 45.5q-63 0 -108.5 -46t-45.5 -110z" />
<glyph unicode="&#xb1;" d="M123 -41v139h956v-139h-956zM123 614v140h403v420h150v-420h403v-140h-403v-419h-150v419h-403z" />
<glyph unicode="&#xb2;" horiz-adv-x="792" d="M80 1135q64 247 313 247q129 0 215 -71t86 -178q0 -105 -99 -213.5t-349 -276.5h450v-96h-614v92q168 120 257.5 188.5t146.5 125.5t73 93.5t16 83.5q0 67 -53 112.5t-131 45.5q-83 0 -136 -50t-62 -136z" />
<glyph unicode="&#xb3;" horiz-adv-x="792" d="M51 739l113 35q28 -82 77.5 -114.5t145.5 -32.5q92 0 146.5 40t54.5 107q0 72 -58.5 112t-162.5 40h-105v92h105q91 0 140.5 35.5t49.5 99.5q0 60 -47.5 97.5t-122.5 37.5q-144 0 -197 -133l-108 29q43 101 119.5 149.5t193.5 48.5q123 0 203 -63t80 -160 q0 -63 -36.5 -111t-102.5 -71q80 -19 126 -72.5t46 -128.5q0 -109 -91.5 -177.5t-238.5 -68.5q-247 0 -330 209z" />
<glyph unicode="&#xb4;" horiz-adv-x="1024" d="M379 1247l395 230l62 -121l-414 -189z" />
<glyph unicode="&#xb5;" d="M203 -342v1352h157v-568q0 -88 10.5 -134.5t39.5 -90.5q67 -104 186 -104q64 0 116.5 29.5t82.5 84.5q45 75 45 230v553h157v-1010h-143v158q-56 -103 -112 -144t-142 -41q-80 0 -138 38t-102 120v-473h-157z" />
<glyph unicode="&#xb6;" d="M74 1026q0 104 45.5 187t122.5 118q71 35 262 35h581v-96h-137v-1612h-100v1612h-96v-1612h-101v1067h-149q-204 0 -281 39q-147 72 -147 262zM240 1040q0 -117 62.5 -168t207.5 -51h141v449h-110q-113 0 -165.5 -13.5t-84.5 -50.5q-51 -57 -51 -166z" />
<glyph unicode="&#xb7;" horiz-adv-x="223" d="M0 408v223h223v-223h-223z" />
<glyph unicode="&#xb8;" horiz-adv-x="1024" d="M307 -328l25 66q73 -37 139 -37q47 0 75.5 20t28.5 52q0 69 -122 69q-2 0 -68 -4l53 162h66l-27 -92q75 -5 119 -21q35 -14 57.5 -45.5t22.5 -68.5q0 -68 -52 -107t-141 -39q-98 0 -176 45z" />
<glyph unicode="&#xb9;" horiz-adv-x="792" d="M154 1065v117q161 81 262 200h86v-747h209v-88h-551v88h225v600q-109 -106 -231 -170z" />
<glyph unicode="&#xba;" horiz-adv-x="704" d="M57 1075q0 140 82.5 229t212.5 89q133 0 213 -89t80 -237q0 -138 -85.5 -226.5t-217.5 -88.5q-129 0 -207 88.5t-78 234.5zM186 1075q0 -112 43 -172.5t121 -60.5t122 61t44 168q0 109 -44 170.5t-122 61.5q-77 0 -120.5 -60.5t-43.5 -167.5z" />
<glyph unicode="&#xbb;" horiz-adv-x="704" d="M96 240l107 282l-107 293h92l172 -293l-172 -282h-92zM360 240l107 282l-107 293h91l172 -293l-172 -282h-91z" />
<glyph unicode="&#xbc;" horiz-adv-x="1802" d="M102 1065v117q163 82 263 200h86v-747h208v-88h-550v88h225v600q-108 -105 -232 -170zM412 0l827 1366h123l-825 -1366h-125zM1051 190v78l389 568h143v-551h139v-95h-139v-190h-117v190h-415zM1180 285h286v374v62q-17 -33 -30 -51z" />
<glyph unicode="&#xbd;" horiz-adv-x="1802" d="M88 1065v117q161 81 262 200h86v-747h209v-88h-551v88h225v600q-109 -106 -231 -170zM397 0l828 1366h123l-826 -1366h-125zM1100 586q64 250 313 250q129 0 216 -71.5t87 -178.5q0 -105 -100 -214.5t-350 -275.5h452v-96h-616v92q167 120 257 188.5t147 125.5t73 94 t16 84q0 67 -53 112t-131 45q-84 0 -137 -49.5t-60 -136.5z" />
<glyph unicode="&#xbe;" horiz-adv-x="1802" d="M41 739l113 35q28 -82 77.5 -114.5t145.5 -32.5q92 0 146.5 40t54.5 107q0 72 -59 112t-163 40h-104v92h104q91 0 141 35.5t50 99.5q0 60 -47.5 97.5t-122.5 37.5q-144 0 -197 -133l-108 29q43 101 119.5 149.5t193.5 48.5q123 0 203 -63t80 -160q0 -63 -37 -111 t-103 -71q80 -19 126 -72.5t46 -128.5q0 -109 -91 -177.5t-238 -68.5q-247 0 -330 209zM481 0l826 1366h125l-826 -1366h-125zM1077 190v78l391 568h144v-551h137v-95h-137v-190h-117v190h-418zM1206 285h289v374v62q-21 -35 -31 -51z" />
<glyph unicode="&#xbf;" horiz-adv-x="1034" d="M82 20q0 114 62 200t194 157q44 24 66.5 37t44.5 30.5t29.5 28t14.5 31t7.5 38.5t-0.5 52q-2 41 -2 90h145l-2 -45q2 -106 -2 -142t-23 -83q-14 -39 -47 -68l-6.5 -6.5t-4.5 -5t-2.5 -2.5l-3 -2t-3 -1.5t-6 -2.5t-8.5 -4q-26 -15 -132 -74q-69 -40 -106 -100.5 t-37 -133.5q0 -106 78.5 -174.5t198.5 -68.5q69 0 130.5 27.5t98.5 74.5q29 37 46 77.5t34 115.5l147 -31q-17 -98 -43.5 -156.5t-79.5 -114.5q-124 -133 -342 -133q-199 0 -322.5 108t-123.5 281zM465 813v197h203v-197h-203z" />
<glyph unicode="&#xc0;" horiz-adv-x="1128" d="M6 0l443 1366h196l445 -1366h-177l-137 399h-506l-120 -399h-144zM221 1671l62 119l395 -215l-43 -80zM319 528h420l-209 656z" />
<glyph unicode="&#xc1;" horiz-adv-x="1128" d="M6 0l443 1366h196l445 -1366h-177l-137 399h-506l-120 -399h-144zM319 528h420l-209 656zM416 1575l395 215l61 -119l-415 -176z" />
<glyph unicode="&#xc2;" horiz-adv-x="1128" d="M6 0l443 1366h196l445 -1366h-177l-137 399h-506l-120 -399h-144zM217 1522l334 245l328 -245l-142 -21l-190 121l-185 -121zM319 528h420l-209 656z" />
<glyph unicode="&#xc3;" horiz-adv-x="1128" d="M6 0l443 1366h196l445 -1366h-177l-137 399h-506l-120 -399h-144zM207 1593q86 127 223 127q34 0 55.5 -6.5t118.5 -46.5q43 -18 86 -18q60 0 123 53l76 -74q-63 -58 -106 -79t-99 -21q-34 0 -55 7t-115 48q-46 19 -90 19q-42 0 -71.5 -15t-61.5 -53zM319 528h420 l-209 656z" />
<glyph unicode="&#xc4;" horiz-adv-x="1128" d="M6 0l443 1366h196l445 -1366h-177l-137 399h-506l-120 -399h-144zM283 1624q0 43 29.5 72.5t72.5 29.5q42 0 72 -30t30 -72q0 -41 -30.5 -71.5t-71.5 -30.5q-43 0 -72.5 29.5t-29.5 72.5zM319 528h420l-209 656zM602 1626q0 43 31 73t74 30q41 0 71.5 -31t30.5 -72 q0 -43 -30.5 -73.5t-73.5 -30.5q-41 0 -72 31t-31 73z" />
<glyph unicode="&#xc5;" horiz-adv-x="1128" d="M6 0l443 1366h196l445 -1366h-177l-137 399h-506l-120 -399h-144zM319 528h420l-209 656zM369 1636q0 75 54 128t130 53q72 0 124 -54t52 -129q0 -74 -52.5 -126t-125.5 -52q-75 0 -128.5 53t-53.5 127zM459 1636q0 -38 27 -65t65 -27q37 0 62.5 26.5t25.5 63.5 q0 38 -25.5 65t-62.5 27q-38 0 -65 -26.5t-27 -63.5z" />
<glyph unicode="&#xc6;" horiz-adv-x="1855" d="M-27 0l813 1366h977v-141h-743v-443h600v-137h-600v-495h768v-150h-938v422h-459l-252 -422h-166zM465 555h385v662z" />
<glyph unicode="&#xc7;" horiz-adv-x="1185" d="M86 696q0 317 154.5 507t412.5 190q384 0 492 -439l-160 -32q-51 172 -129.5 248.5t-204.5 76.5q-178 0 -278.5 -151t-100.5 -420q0 -255 101.5 -407t271.5 -152q74 0 142.5 34t109.5 91q31 43 50 87.5t42 129.5l156 -35q-54 -221 -180 -336.5t-316 -116.5l-24 -77l34 2 q78 0 130.5 -43t52.5 -109q0 -71 -59 -113.5t-158 -42.5q-55 0 -97.5 11t-95.5 39l25 71q86 -39 153 -39q55 0 86 20.5t31 57.5q0 78 -135 78q-20 0 -76 -6l53 157q-218 26 -350.5 223.5t-132.5 495.5z" />
<glyph unicode="&#xc8;" horiz-adv-x="1122" d="M170 0v1366h864v-149h-694v-437h551v-139h-551v-491h713v-150h-883zM322 1671l61 119l395 -215l-41 -80z" />
<glyph unicode="&#xc9;" horiz-adv-x="1122" d="M170 0v1366h864v-149h-694v-437h551v-139h-551v-491h713v-150h-883zM451 1575l397 215l61 -119l-415 -176z" />
<glyph unicode="&#xca;" horiz-adv-x="1122" d="M170 0v1366h864v-149h-694v-437h551v-139h-551v-491h713v-150h-883zM272 1522l336 245l328 -245l-141 -21l-191 121l-184 -121z" />
<glyph unicode="&#xcb;" horiz-adv-x="1122" d="M170 0v1366h864v-149h-694v-437h551v-139h-551v-491h713v-150h-883zM340 1624q0 43 29.5 72.5t72.5 29.5q42 0 72.5 -30t30.5 -72q0 -41 -31 -71.5t-72 -30.5q-43 0 -72.5 29.5t-29.5 72.5zM657 1626q0 43 31 73t74 30q41 0 71.5 -31t30.5 -72q0 -43 -30.5 -73.5 t-73.5 -30.5q-42 0 -72.5 31t-30.5 73z" />
<glyph unicode="&#xcc;" horiz-adv-x="512" d="M-27 1675l62 115l354 -215l-41 -80zM172 0v1366h170v-1366h-170z" />
<glyph unicode="&#xcd;" horiz-adv-x="512" d="M123 1575l354 215l62 -115l-373 -180zM170 0v1366h170v-1366h-170z" />
<glyph unicode="&#xce;" horiz-adv-x="512" d="M-35 1522l293 245l289 -245l-135 -21l-156 121l-152 -121zM170 0v1366h170v-1366h-170z" />
<glyph unicode="&#xcf;" horiz-adv-x="512" d="M12 1624q0 43 30 72.5t73 29.5q42 0 72 -30t30 -72q0 -41 -30.5 -71.5t-71.5 -30.5q-43 0 -73 29.5t-30 72.5zM170 0v1366h170v-1366h-170zM287 1626q0 43 30.5 73t73.5 30q41 0 72 -31t31 -72q0 -43 -31 -73.5t-74 -30.5q-41 0 -71.5 30.5t-30.5 73.5z" />
<glyph unicode="&#xd0;" horiz-adv-x="1325" d="M35 655v138h137v573h455q128 0 225.5 -36t179.5 -113q101 -95 154 -231t53 -298q0 -195 -71.5 -352.5t-199 -246.5t-284.5 -89h-512v655h-137zM342 145h276q92 0 170.5 29.5t129.5 83.5q69 72 108 187t39 243q0 257 -143 416q-110 119 -306 119h-274v-430h326v-138h-326 v-510z" />
<glyph unicode="&#xd1;" horiz-adv-x="1345" d="M170 0v1366h213l661 -1114l-2 94q-2 51 -2 100v920h136v-1366h-166l-707 1190l2 -90q2 -45 2 -86v-1014h-137zM338 1593q86 127 223 127q35 0 57 -6.5t117 -46.5q43 -18 86 -18q60 0 123 53l78 -74q-64 -58 -107.5 -79t-99.5 -21q-32 0 -53.5 7t-116.5 48q-43 19 -90 19 q-42 0 -71.5 -15t-61.5 -53z" />
<glyph unicode="&#xd2;" horiz-adv-x="1292" d="M86 680q0 316 156 514.5t405 198.5q252 0 405.5 -194.5t153.5 -514.5q0 -155 -47.5 -296t-134.5 -243q-144 -172 -381 -172q-244 0 -389 177q-168 208 -168 530zM264 678q0 -255 105 -410t278 -155q172 0 276.5 157t104.5 416q0 266 -101.5 416.5t-281.5 150.5 q-173 0 -277 -157t-104 -418zM350 1671l62 119l395 -215l-43 -80z" />
<glyph unicode="&#xd3;" horiz-adv-x="1292" d="M86 680q0 316 156 514.5t405 198.5q252 0 405.5 -194.5t153.5 -514.5q0 -155 -47.5 -296t-134.5 -243q-144 -172 -381 -172q-244 0 -389 177q-168 208 -168 530zM264 678q0 -255 105 -410t278 -155q172 0 276.5 157t104.5 416q0 266 -101.5 416.5t-281.5 150.5 q-173 0 -277 -157t-104 -418zM500 1575l395 215l61 -119l-413 -176z" />
<glyph unicode="&#xd4;" horiz-adv-x="1292" d="M86 680q0 316 156 514.5t405 198.5q252 0 405.5 -194.5t153.5 -514.5q0 -155 -47.5 -296t-134.5 -243q-144 -172 -381 -172q-244 0 -389 177q-168 208 -168 530zM264 678q0 -255 105 -410t278 -155q172 0 276.5 157t104.5 416q0 266 -101.5 416.5t-281.5 150.5 q-173 0 -277 -157t-104 -418zM315 1522l334 245l330 -245l-141 -21l-191 121l-184 -121z" />
<glyph unicode="&#xd5;" horiz-adv-x="1292" d="M86 680q0 316 156 514.5t405 198.5q252 0 405.5 -194.5t153.5 -514.5q0 -155 -47.5 -296t-134.5 -243q-144 -172 -381 -172q-244 0 -389 177q-168 208 -168 530zM264 678q0 -255 105 -410t278 -155q172 0 276.5 157t104.5 416q0 266 -101.5 416.5t-281.5 150.5 q-173 0 -277 -157t-104 -418zM317 1593q89 127 226 127q34 0 55.5 -6.5t118.5 -46.5q43 -18 84 -18q34 0 61.5 11.5t63.5 41.5l75 -74q-63 -58 -105.5 -79t-98.5 -21q-34 0 -55 7t-115 48q-46 19 -92 19q-40 0 -70.5 -15t-63.5 -53z" />
<glyph unicode="&#xd6;" horiz-adv-x="1292" d="M86 680q0 316 156 514.5t405 198.5q252 0 405.5 -194.5t153.5 -514.5q0 -155 -47.5 -296t-134.5 -243q-144 -172 -381 -172q-244 0 -389 177q-168 208 -168 530zM264 678q0 -255 105 -410t278 -155q172 0 276.5 157t104.5 416q0 266 -101.5 416.5t-281.5 150.5 q-173 0 -277 -157t-104 -418zM381 1624q0 43 29.5 72.5t72.5 29.5q42 0 72.5 -30t30.5 -72q0 -41 -31 -71.5t-72 -30.5q-43 0 -72.5 29.5t-29.5 72.5zM700 1626q0 43 31 73t74 30q41 0 71.5 -31t30.5 -72q0 -43 -30.5 -73.5t-73.5 -30.5q-41 0 -72 31t-31 73z" />
<glyph unicode="&#xd7;" d="M195 375l309 309l-309 309l98 99l309 -310l307 310l99 -99l-310 -309l310 -309l-99 -99l-307 310l-309 -310z" />
<glyph unicode="&#xd8;" horiz-adv-x="1292" d="M63 -49l158 242q-135 207 -135 485q0 211 70 373.5t198 252t293 89.5q97 0 171.5 -26t156.5 -87l98 139h146l-158 -233q145 -195 145 -494q0 -314 -170 -530q-147 -189 -397 -189q-105 0 -178 27t-158 98l-96 -147h-144zM264 686q0 -204 68 -352l545 827q-92 92 -234 92 q-172 0 -275.5 -155t-103.5 -412zM406 223q53 -60 107 -85t132 -25q176 0 270 143q113 173 113 436q0 215 -74 363z" />
<glyph unicode="&#xd9;" horiz-adv-x="1241" d="M150 473v893h169v-893q0 -177 56 -250q35 -46 104.5 -73t149.5 -27q79 0 145.5 26.5t106.5 73.5q36 42 51.5 100t15.5 150v893h142v-893q0 -117 -21.5 -195t-71.5 -143q-122 -162 -383 -162q-238 0 -351 122t-113 378zM317 1671l62 119l395 -215l-43 -80z" />
<glyph unicode="&#xda;" horiz-adv-x="1241" d="M150 473v893h169v-893q0 -177 56 -250q35 -46 104.5 -73t149.5 -27q79 0 145.5 26.5t106.5 73.5q36 42 51.5 100t15.5 150v893h142v-893q0 -117 -21.5 -195t-71.5 -143q-122 -162 -383 -162q-238 0 -351 122t-113 378zM494 1575l395 215l61 -119l-413 -176z" />
<glyph unicode="&#xdb;" horiz-adv-x="1241" d="M150 473v893h169v-893q0 -177 56 -250q35 -46 104.5 -73t149.5 -27q79 0 145.5 26.5t106.5 73.5q36 42 51.5 100t15.5 150v893h142v-893q0 -117 -21.5 -195t-71.5 -143q-122 -162 -383 -162q-238 0 -351 122t-113 378zM295 1522l334 245l329 -245l-141 -21l-190 121 l-185 -121z" />
<glyph unicode="&#xdc;" horiz-adv-x="1241" d="M150 473v893h169v-893q0 -177 56 -250q35 -46 104.5 -73t149.5 -27q79 0 145.5 26.5t106.5 73.5q36 42 51.5 100t15.5 150v893h142v-893q0 -117 -21.5 -195t-71.5 -143q-122 -162 -383 -162q-238 0 -351 122t-113 378zM362 1624q0 43 30 72.5t73 29.5q42 0 72 -30t30 -72 q0 -41 -30.5 -71.5t-71.5 -30.5q-43 0 -73 29.5t-30 72.5zM680 1626q0 43 30.5 73t73.5 30q41 0 72 -31t31 -72q0 -43 -31 -73.5t-74 -30.5q-41 0 -71.5 30.5t-30.5 73.5z" />
<glyph unicode="&#xdd;" horiz-adv-x="1044" d="M-20 1366h200l363 -629l364 629h156l-457 -791v-575h-170v575zM395 1575l398 215l61 -119l-416 -176z" />
<glyph unicode="&#xde;" horiz-adv-x="1159" d="M170 0v1366h170v-199h313q186 0 293 -84q68 -54 109 -142.5t41 -180.5q0 -177 -119 -290.5t-305 -113.5h-332v-356h-170zM340 498h313q122 0 195.5 72t73.5 190q0 117 -71 190.5t-185 73.5h-326v-526z" />
<glyph unicode="&#xdf;" horiz-adv-x="1161" d="M51 791v127h107q8 110 22 172t47 127q51 101 149.5 158t223.5 57q160 0 268.5 -85.5t108.5 -211.5q0 -127 -111 -205t-293 -78q-23 0 -30.5 -3.5t-7.5 -14.5q0 -17 27.5 -32.5t115.5 -47.5q242 -89 336 -179t94 -231q0 -166 -122 -276.5t-306 -110.5q-88 0 -225 33 l45 114q98 -20 157 -20q120 0 199.5 68.5t79.5 171.5q0 61 -38.5 113t-106.5 83l-250 109q-156 71 -156 168q0 51 37 112q13 24 72 29q143 12 227 67t84 138q0 71 -57.5 115.5t-149.5 44.5q-131 0 -207 -89t-76 -243v-1059h-157v879h-107z" />
<glyph unicode="&#xe0;" horiz-adv-x="1083" d="M68 279q0 89 48 164.5t130 115.5q137 70 397 70q68 0 131 -4v32q0 143 -59.5 202t-204.5 59q-229 0 -270 -185l-146 25q10 57 27 91t49 66q120 123 375 123q226 0 313 -118q37 -51 52.5 -118t15.5 -177v-428q0 -113 22 -197h-155q-10 47 -19 182q-61 -112 -143 -160.5 t-211 -48.5q-156 0 -254 85.5t-98 220.5zM236 274q0 -82 58.5 -131t156.5 -49q138 0 231.5 100t93.5 246q0 39 -2 66q-106 4 -133 4q-197 0 -301 -60.5t-104 -175.5zM252 1356l61 121l396 -230l-43 -80z" />
<glyph unicode="&#xe1;" horiz-adv-x="1083" d="M68 279q0 89 48 164.5t130 115.5q137 70 397 70q68 0 131 -4v32q0 143 -59.5 202t-204.5 59q-229 0 -270 -185l-146 25q10 57 27 91t49 66q120 123 375 123q226 0 313 -118q37 -51 52.5 -118t15.5 -177v-428q0 -113 22 -197h-155q-10 47 -19 182q-61 -112 -143 -160.5 t-211 -48.5q-156 0 -254 85.5t-98 220.5zM236 274q0 -82 58.5 -131t156.5 -49q138 0 231.5 100t93.5 246q0 39 -2 66q-106 4 -133 4q-197 0 -301 -60.5t-104 -175.5zM375 1247l395 230l61 -121l-413 -189z" />
<glyph unicode="&#xe2;" horiz-adv-x="1083" d="M68 279q0 89 48 164.5t130 115.5q137 70 397 70q68 0 131 -4v32q0 143 -59.5 202t-204.5 59q-229 0 -270 -185l-146 25q10 57 27 91t49 66q120 123 375 123q226 0 313 -118q37 -51 52.5 -118t15.5 -177v-428q0 -113 22 -197h-155q-10 47 -19 182q-61 -112 -143 -160.5 t-211 -48.5q-156 0 -254 85.5t-98 220.5zM203 1194l334 260l329 -260l-141 -20l-190 135l-185 -135zM236 274q0 -82 58.5 -131t156.5 -49q138 0 231.5 100t93.5 246q0 39 -2 66q-106 4 -133 4q-197 0 -301 -60.5t-104 -175.5z" />
<glyph unicode="&#xe3;" horiz-adv-x="1083" d="M68 279q0 89 48 164.5t130 115.5q137 70 397 70q68 0 131 -4v32q0 143 -59.5 202t-204.5 59q-229 0 -270 -185l-146 25q10 57 27 91t49 66q120 123 375 123q226 0 313 -118q37 -51 52.5 -118t15.5 -177v-428q0 -113 22 -197h-155q-10 47 -19 182q-61 -112 -143 -160.5 t-211 -48.5q-156 0 -254 85.5t-98 220.5zM201 1274q86 127 223 127q34 0 55.5 -6.5t118.5 -46.5q46 -19 86 -19q59 0 123 51l76 -71q-65 -59 -107.5 -80t-97.5 -21q-33 0 -53.5 7t-116.5 49q-43 18 -92 18q-39 0 -68.5 -15.5t-62.5 -52.5zM236 274q0 -82 58.5 -131 t156.5 -49q138 0 231.5 100t93.5 246q0 39 -2 66q-106 4 -133 4q-197 0 -301 -60.5t-104 -175.5z" />
<glyph unicode="&#xe4;" horiz-adv-x="1083" d="M68 279q0 89 48 164.5t130 115.5q137 70 397 70q68 0 131 -4v32q0 143 -59.5 202t-204.5 59q-229 0 -270 -185l-146 25q10 57 27 91t49 66q120 123 375 123q226 0 313 -118q37 -51 52.5 -118t15.5 -177v-428q0 -113 22 -197h-155q-10 47 -19 182q-61 -112 -143 -160.5 t-211 -48.5q-156 0 -254 85.5t-98 220.5zM236 274q0 -82 58.5 -131t156.5 -49q138 0 231.5 100t93.5 246q0 39 -2 66q-106 4 -133 4q-197 0 -301 -60.5t-104 -175.5zM270 1305q0 43 30 72.5t73 29.5q42 0 72 -30t30 -72q0 -41 -30.5 -72t-71.5 -31q-43 0 -73 30t-30 73z M588 1307q0 43 30.5 72.5t73.5 29.5q41 0 72 -30.5t31 -71.5q0 -43 -31 -74t-74 -31q-41 0 -71.5 31t-30.5 74z" />
<glyph unicode="&#xe5;" horiz-adv-x="1083" d="M68 279q0 89 48 164.5t130 115.5q137 70 397 70q68 0 131 -4v32q0 143 -59.5 202t-204.5 59q-229 0 -270 -185l-146 25q10 57 27 91t49 66q120 123 375 123q226 0 313 -118q37 -51 52.5 -118t15.5 -177v-428q0 -113 22 -197h-155q-10 47 -19 182q-61 -112 -143 -160.5 t-211 -48.5q-156 0 -254 85.5t-98 220.5zM236 274q0 -82 58.5 -131t156.5 -49q138 0 231.5 100t93.5 246q0 39 -2 66q-106 4 -133 4q-197 0 -301 -60.5t-104 -175.5zM360 1327q0 72 52 123t127 51q71 0 120.5 -51.5t49.5 -124.5q0 -71 -50 -121.5t-122 -50.5t-124.5 51 t-52.5 123zM442 1327q0 -37 28.5 -64.5t66.5 -27.5q37 0 63.5 27t26.5 65t-26.5 65t-63.5 27q-39 0 -67 -27t-28 -65z" />
<glyph unicode="&#xe6;" horiz-adv-x="1722" d="M63 272q0 96 51.5 173t143.5 118q130 62 367 62q28 0 135 -7q2 25 2 66q0 236 -258 236q-101 0 -167.5 -47t-86.5 -132l-150 27q17 63 41.5 101.5t67.5 72.5q122 94 326 94q123 0 200.5 -33t141.5 -112q133 145 327 145q121 0 218.5 -59.5t154.5 -167.5q57 -111 65 -322 h-731q0 -90 11 -141.5t41 -103.5q37 -65 104 -102.5t145 -37.5q95 0 159.5 46.5t111.5 148.5l141 -27q-46 -141 -158 -219t-266 -78q-139 0 -236 61t-171 195q-54 -132 -146.5 -195t-230.5 -63q-158 0 -255.5 83t-97.5 218zM236 283q0 -78 55 -129.5t141 -51.5 q73 0 141.5 33.5t112.5 91.5q70 87 70 222v53q-90 10 -138 10q-178 0 -280 -61.5t-102 -167.5zM918 604h552q-6 147 -76 228t-190 81q-123 0 -199 -83t-87 -226z" />
<glyph unicode="&#xe7;" horiz-adv-x="954" d="M78 502q0 242 119 388t315 146q155 0 253.5 -90t129.5 -262l-141 -27q-41 250 -244 250q-124 0 -196 -107t-72 -292q0 -191 70 -298.5t196 -107.5q95 0 157.5 63.5t88.5 186.5l141 -24q-28 -166 -132.5 -262t-256.5 -95l-19 -65q71 -2 117 -19q35 -14 57.5 -45.5 t22.5 -68.5q0 -67 -51 -106.5t-139 -39.5q-101 0 -179 45l25 64q74 -35 139 -35q47 0 76 20t29 52q0 69 -121 69q-21 0 -70 -6l45 139q-167 26 -263.5 167.5t-96.5 359.5z" />
<glyph unicode="&#xe8;" horiz-adv-x="1064" d="M78 500q0 237 131 386.5t338 149.5q130 0 231 -63.5t154 -179.5q29 -64 41 -132t14 -169h-735q0 -89 9 -138.5t32 -97.5q34 -69 105 -111.5t153 -42.5q97 0 162.5 48t109.5 151l146 -31q-50 -140 -162.5 -218.5t-265.5 -78.5q-207 0 -335 145.5t-128 381.5zM260 608h555 q-3 143 -74 225t-192 82q-133 0 -217 -104q-33 -42 -48.5 -86t-23.5 -117zM270 1356l62 121l395 -230l-43 -80z" />
<glyph unicode="&#xe9;" horiz-adv-x="1064" d="M78 500q0 237 131 386.5t338 149.5q130 0 231 -63.5t154 -179.5q29 -64 41 -132t14 -169h-735q0 -89 9 -138.5t32 -97.5q34 -69 105 -111.5t153 -42.5q97 0 162.5 48t109.5 151l146 -31q-50 -140 -162.5 -218.5t-265.5 -78.5q-207 0 -335 145.5t-128 381.5zM260 608h555 q-3 143 -74 225t-192 82q-133 0 -217 -104q-33 -42 -48.5 -86t-23.5 -117zM393 1247l395 230l62 -121l-416 -189z" />
<glyph unicode="&#xea;" horiz-adv-x="1064" d="M78 500q0 237 131 386.5t338 149.5q130 0 231 -63.5t154 -179.5q29 -64 41 -132t14 -169h-735q0 -89 9 -138.5t32 -97.5q34 -69 105 -111.5t153 -42.5q97 0 162.5 48t109.5 151l146 -31q-50 -140 -162.5 -218.5t-265.5 -78.5q-207 0 -335 145.5t-128 381.5zM215 1194 l334 260l328 -260l-142 -20l-190 135l-185 -135zM260 608h555q-3 143 -74 225t-192 82q-133 0 -217 -104q-33 -42 -48.5 -86t-23.5 -117z" />
<glyph unicode="&#xeb;" horiz-adv-x="1064" d="M78 500q0 237 131 386.5t338 149.5q130 0 231 -63.5t154 -179.5q29 -64 41 -132t14 -169h-735q0 -89 9 -138.5t32 -97.5q34 -69 105 -111.5t153 -42.5q97 0 162.5 48t109.5 151l146 -31q-50 -140 -162.5 -218.5t-265.5 -78.5q-207 0 -335 145.5t-128 381.5zM260 608h555 q-3 143 -74 225t-192 82q-133 0 -217 -104q-33 -42 -48.5 -86t-23.5 -117zM291 1305q0 43 29.5 72.5t72.5 29.5q42 0 72.5 -30t30.5 -72q0 -41 -31 -72t-72 -31q-43 0 -72.5 30t-29.5 73zM596 1307q0 43 30.5 72.5t73.5 29.5q41 0 72 -30.5t31 -71.5q0 -43 -31 -74t-74 -31 q-41 0 -71.5 31t-30.5 74z" />
<glyph unicode="&#xec;" horiz-adv-x="468" d="M-31 1368l64 109l321 -230l-47 -80zM156 0v1010h157v-1010h-157z" />
<glyph unicode="&#xed;" horiz-adv-x="468" d="M115 1247l321 230l64 -109l-338 -201zM156 0v1010h157v-1010h-157z" />
<glyph unicode="&#xee;" horiz-adv-x="468" d="M-35 1194l273 260l268 -260l-131 -20l-139 135l-136 -135zM158 0v1010h157v-1010h-157z" />
<glyph unicode="&#xef;" horiz-adv-x="468" d="M-8 1305q0 43 29.5 72.5t72.5 29.5q42 0 72.5 -30t30.5 -72q0 -41 -31 -72t-72 -31q-43 0 -72.5 30t-29.5 73zM156 0v1010h157v-1010h-157zM266 1307q0 42 31 72t74 30q41 0 71.5 -30.5t30.5 -71.5q0 -43 -30.5 -74t-73.5 -31q-41 0 -72 31t-31 74z" />
<glyph unicode="&#xf0;" horiz-adv-x="1060" d="M78 492q0 217 124 367.5t302 150.5q74 0 130 -26t114 -89q-26 86 -64.5 150.5t-103.5 132.5l-174 -103l-62 88l148 88q-63 46 -164 95l75 81q121 -40 207 -106l176 98l70 -86l-151 -86q276 -282 276 -710q0 -260 -123.5 -413t-333.5 -153q-250 0 -368 213 q-78 141 -78 308zM250 498q0 -186 74 -292t206 -106q127 0 203 105t76 280q0 178 -77.5 287t-205.5 109q-125 0 -200.5 -105t-75.5 -278z" />
<glyph unicode="&#xf1;" horiz-adv-x="1110" d="M158 0v1010h145v-187q78 120 149 166.5t175 46.5q97 0 176 -48.5t119 -133.5q32 -71 32 -270v-584h-147v649q0 123 -54 187.5t-155 64.5q-123 0 -203 -98t-80 -248v-555h-157zM221 1274q89 127 223 127q35 0 57 -6.5t117 -46.5q46 -19 87 -19q33 0 59.5 11t62.5 40 l78 -71q-65 -59 -108.5 -80t-98.5 -21q-32 0 -52 7t-118 49q-41 18 -90 18q-41 0 -70.5 -15.5t-62.5 -52.5z" />
<glyph unicode="&#xf2;" horiz-adv-x="1062" d="M78 508q0 235 127 381.5t330 146.5q205 0 327.5 -147t122.5 -395q0 -227 -131.5 -374t-335.5 -147q-198 0 -319 147t-121 388zM248 1356l61 121l396 -230l-41 -80zM250 510q0 -195 73 -301.5t207 -106.5q132 0 207.5 106.5t75.5 293.5q0 194 -72 297q-38 51 -94.5 79.5 t-118.5 28.5q-60 0 -117 -29.5t-92 -80.5q-69 -101 -69 -287z" />
<glyph unicode="&#xf3;" horiz-adv-x="1062" d="M78 508q0 235 127 381.5t330 146.5q205 0 327.5 -147t122.5 -395q0 -227 -131.5 -374t-335.5 -147q-198 0 -319 147t-121 388zM250 510q0 -195 73 -301.5t207 -106.5q132 0 207.5 106.5t75.5 293.5q0 194 -72 297q-38 51 -94.5 79.5t-118.5 28.5q-60 0 -117 -29.5 t-92 -80.5q-69 -101 -69 -287zM371 1247l395 230l61 -121l-413 -189z" />
<glyph unicode="&#xf4;" horiz-adv-x="1062" d="M78 508q0 235 127 381.5t330 146.5q205 0 327.5 -147t122.5 -395q0 -227 -131.5 -374t-335.5 -147q-198 0 -319 147t-121 388zM199 1194l336 260l327 -260l-141 -20l-191 135l-184 -135zM250 510q0 -195 73 -301.5t207 -106.5q132 0 207.5 106.5t75.5 293.5 q0 194 -72 297q-38 51 -94.5 79.5t-118.5 28.5q-60 0 -117 -29.5t-92 -80.5q-69 -101 -69 -287z" />
<glyph unicode="&#xf5;" horiz-adv-x="1062" d="M78 508q0 235 127 381.5t330 146.5q205 0 327.5 -147t122.5 -395q0 -227 -131.5 -374t-335.5 -147q-198 0 -319 147t-121 388zM203 1274q89 127 223 127q35 0 57 -6.5t119 -46.5q43 -19 84 -19q61 0 125 51l76 -71q-64 -58 -107.5 -79.5t-97.5 -21.5q-33 0 -53.5 7 t-116.5 49q-44 18 -92 18q-41 0 -70.5 -15.5t-62.5 -52.5zM250 510q0 -195 73 -301.5t207 -106.5q132 0 207.5 106.5t75.5 293.5q0 194 -72 297q-38 51 -94.5 79.5t-118.5 28.5q-60 0 -117 -29.5t-92 -80.5q-69 -101 -69 -287z" />
<glyph unicode="&#xf6;" horiz-adv-x="1062" d="M78 508q0 235 127 381.5t330 146.5q205 0 327.5 -147t122.5 -395q0 -227 -131.5 -374t-335.5 -147q-198 0 -319 147t-121 388zM250 510q0 -195 73 -301.5t207 -106.5q132 0 207.5 106.5t75.5 293.5q0 194 -72 297q-38 51 -94.5 79.5t-118.5 28.5q-60 0 -117 -29.5 t-92 -80.5q-69 -101 -69 -287zM266 1305q0 43 30 72.5t73 29.5q42 0 72 -30t30 -72q0 -41 -30.5 -72t-71.5 -31q-43 0 -73 30t-30 73zM584 1307q0 43 30.5 72.5t73.5 29.5q41 0 72 -30.5t31 -71.5q0 -43 -31 -74t-74 -31q-41 0 -71.5 31t-30.5 74z" />
<glyph unicode="&#xf7;" d="M123 614v140h956v-140h-956zM504 387q0 40 28.5 68t69.5 28q38 0 66 -28t28 -68t-28 -68t-68 -28t-68 28t-28 68zM504 991q0 40 28.5 68t69.5 28q38 0 66 -28t28 -68t-28 -68t-68 -28t-68 28t-28 68z" />
<glyph unicode="&#xf8;" horiz-adv-x="1062" d="M37 -55l145 200q-54 79 -78 165.5t-24 199.5q0 235 127.5 380.5t331.5 145.5q142 0 254 -80l90 119h141l-150 -198q111 -152 111 -371q0 -238 -130 -385.5t-339 -147.5q-78 0 -137.5 20t-118.5 66l-88 -114h-135zM252 510q0 -133 37 -234l405 570q-76 61 -164 61 q-59 0 -114.5 -28.5t-89.5 -75.5q-74 -106 -74 -293zM358 174q75 -72 172 -72q129 0 206 107t77 287q0 165 -45 258z" />
<glyph unicode="&#xf9;" horiz-adv-x="1107" d="M158 365v645h157v-645q0 -137 56 -199q61 -64 143 -64q117 0 199 99t82 239v570h157v-1010h-141v193q-111 -220 -322 -220q-154 0 -242.5 104.5t-88.5 287.5zM244 1356l61 121l397 -230l-43 -80z" />
<glyph unicode="&#xfa;" horiz-adv-x="1107" d="M158 365v645h157v-645q0 -137 56 -199q61 -64 143 -64q117 0 199 99t82 239v570h157v-1010h-141v193q-111 -220 -322 -220q-154 0 -242.5 104.5t-88.5 287.5zM416 1247l395 230l61 -121l-415 -189z" />
<glyph unicode="&#xfb;" horiz-adv-x="1107" d="M158 365v645h157v-645q0 -137 56 -199q61 -64 143 -64q117 0 199 99t82 239v570h157v-1010h-141v193q-111 -220 -322 -220q-154 0 -242.5 104.5t-88.5 287.5zM223 1194l334 260l330 -260l-142 -20l-190 135l-184 -135z" />
<glyph unicode="&#xfc;" horiz-adv-x="1107" d="M158 365v645h157v-645q0 -137 56 -199q61 -64 143 -64q117 0 199 99t82 239v570h157v-1010h-141v193q-111 -220 -322 -220q-154 0 -242.5 104.5t-88.5 287.5zM291 1305q0 43 29.5 72.5t72.5 29.5q42 0 72.5 -30t30.5 -72q0 -41 -31 -72t-72 -31q-43 0 -72.5 30t-29.5 73z M608 1307q0 42 31 72t74 30q41 0 71.5 -30.5t30.5 -71.5q0 -43 -30.5 -74t-73.5 -31q-41 0 -72 31t-31 74z" />
<glyph unicode="&#xfd;" horiz-adv-x="849" d="M10 1010h160l270 -760l277 760h133l-406 -1129q-51 -144 -145 -207q-48 -34 -152 -34q-47 0 -118 16v125q69 -14 104 -14q88 0 133 49.5t94 201.5zM311 1247l396 230l61 -121l-416 -189z" />
<glyph unicode="&#xfe;" horiz-adv-x="1093" d="M158 -342v1708h157v-532q58 105 132 153.5t176 48.5q175 0 285 -147.5t110 -382.5q0 -238 -111.5 -385.5t-292.5 -147.5q-98 0 -166 41.5t-133 139.5v-496h-157zM315 367q19 -115 95.5 -190t173.5 -75q50 0 101.5 26.5t84.5 68.5q76 98 76 299q0 190 -69.5 296.5 t-192.5 106.5q-94 0 -166 -66.5t-103 -183.5v-282z" />
<glyph unicode="&#xff;" horiz-adv-x="849" d="M10 1010h160l270 -760l277 760h133l-406 -1129q-51 -144 -145 -207q-48 -34 -152 -34q-47 0 -118 16v125q69 -14 104 -14q88 0 133 49.5t94 201.5zM172 1305q0 43 29.5 72.5t72.5 29.5q42 0 72.5 -30t30.5 -72q0 -41 -31 -72t-72 -31q-43 0 -72.5 30t-29.5 73zM489 1307 q0 42 31 72t74 30q41 0 71.5 -30.5t30.5 -71.5q0 -43 -30.5 -74t-73.5 -31q-41 0 -72 31t-31 74z" />
<glyph unicode="&#x152;" horiz-adv-x="1972" d="M84 678q0 208 75.5 371t211.5 253.5t309 90.5q117 0 197.5 -37.5t160.5 -128.5v139h867v-139h-686v-447h553v-135h-553v-502h686v-143h-867v143q-77 -91 -161 -130.5t-203 -39.5q-170 0 -304.5 90t-210 251t-75.5 364zM262 682q0 -258 113 -413.5t301 -155.5 q89 0 166 34.5t127 96.5q37 44 69 153v598q-29 120 -125 189t-231 69q-192 0 -306 -155t-114 -416z" />
<glyph unicode="&#x153;" horiz-adv-x="1746" d="M78 504q0 233 130.5 382.5t334.5 149.5q103 0 186.5 -41.5t161.5 -130.5q84 93 164.5 132.5t185.5 39.5q125 0 221 -62t148 -179q29 -59 41.5 -126.5t17.5 -174.5h-711q0 -115 21 -185q31 -91 105 -145.5t167 -54.5q91 0 153.5 46.5t106.5 147.5l142 -27 q-23 -63 -45 -101t-56 -73q-60 -62 -142 -95.5t-171 -33.5q-106 0 -189.5 41.5t-158.5 132.5q-79 -92 -164 -133t-195 -41q-203 0 -328.5 146.5t-125.5 384.5zM254 494q0 -216 86 -308q79 -88 197 -88q71 0 131.5 35t95.5 96q25 41 41 118.5t16 152.5q0 196 -71.5 299.5 t-208.5 103.5q-140 0 -213.5 -104.5t-73.5 -304.5zM963 610h538q-6 140 -76 221.5t-184 81.5q-72 0 -132 -34.5t-97 -96.5q-39 -65 -49 -172z" />
<glyph unicode="&#x178;" horiz-adv-x="1044" d="M-20 1366h200l363 -629l364 629h156l-457 -791v-575h-170v575zM270 1624q0 43 30 72.5t73 29.5q42 0 72 -30t30 -72q0 -41 -30.5 -71.5t-71.5 -30.5q-43 0 -73 29.5t-30 72.5zM590 1626q0 43 30.5 73t73.5 30q41 0 72 -31t31 -72q0 -43 -31 -73.5t-74 -30.5 q-41 0 -71.5 30.5t-30.5 73.5z" />
<glyph unicode="&#x2c6;" horiz-adv-x="1024" d="M180 1194l334 260l330 -260l-142 -20l-190 135l-184 -135z" />
<glyph unicode="&#x2dc;" horiz-adv-x="1024" d="M170 1274q89 127 223 127q35 0 57 -6.5t117 -46.5q46 -19 86 -19q61 0 125 51l76 -71q-64 -58 -107.5 -79.5t-97.5 -21.5q-33 0 -53.5 7t-116.5 49q-43 18 -92 18q-41 0 -70.5 -15.5t-62.5 -52.5z" />
<glyph unicode="&#x2000;" horiz-adv-x="908" />
<glyph unicode="&#x2001;" horiz-adv-x="1817" />
<glyph unicode="&#x2002;" horiz-adv-x="908" />
<glyph unicode="&#x2003;" horiz-adv-x="1817" />
<glyph unicode="&#x2004;" horiz-adv-x="605" />
<glyph unicode="&#x2005;" horiz-adv-x="454" />
<glyph unicode="&#x2006;" horiz-adv-x="302" />
<glyph unicode="&#x2007;" horiz-adv-x="302" />
<glyph unicode="&#x2008;" horiz-adv-x="227" />
<glyph unicode="&#x2009;" horiz-adv-x="363" />
<glyph unicode="&#x200a;" horiz-adv-x="100" />
<glyph unicode="&#x2010;" horiz-adv-x="512" d="M31 451v122h452v-122h-452z" />
<glyph unicode="&#x2011;" horiz-adv-x="512" d="M31 451v122h452v-122h-452z" />
<glyph unicode="&#x2012;" horiz-adv-x="512" d="M31 451v122h452v-122h-452z" />
<glyph unicode="&#x2013;" d="M201 451v122h796v-122h-796z" />
<glyph unicode="&#x2014;" horiz-adv-x="1366" d="M4 451v122h1358v-122h-1358z" />
<glyph unicode="&#x2018;" horiz-adv-x="512" d="M154 924v202l135 240h69l-98 -240h98v-202h-204z" />
<glyph unicode="&#x2019;" horiz-adv-x="512" d="M154 924l98 239h-98v203h204v-203l-135 -239h-69z" />
<glyph unicode="&#x201a;" horiz-adv-x="512" d="M154 0v203h204v-203l-135 -240h-69l98 240h-98z" />
<glyph unicode="&#x201c;" horiz-adv-x="821" d="M154 928v170l155 268h72l-113 -242h82v-196h-196zM453 928v170l161 268h74l-117 -242h82v-196h-200z" />
<glyph unicode="&#x201d;" horiz-adv-x="821" d="M143 928l117 241h-82v197h201v-170l-162 -268h-74zM451 928l112 241h-82v197h197v-170l-156 -268h-71z" />
<glyph unicode="&#x201e;" horiz-adv-x="821" d="M143 -240l117 240h-82v197h201v-170l-162 -267h-74zM451 -240l112 240h-82v197h197v-170l-156 -267h-71z" />
<glyph unicode="&#x2022;" horiz-adv-x="1366" d="M401 692q0 120 83.5 202.5t203.5 82.5q115 0 198 -83.5t83 -199.5q0 -118 -83 -201t-200 -83q-118 0 -201.5 82.5t-83.5 199.5z" />
<glyph unicode="&#x2026;" horiz-adv-x="1525" d="M143 0v223h224v-223h-224zM653 0v223h221v-223h-221zM1159 0v223h223v-223h-223z" />
<glyph unicode="&#x202f;" horiz-adv-x="363" />
<glyph unicode="&#x2039;" horiz-adv-x="438" d="M82 532l172 283h90l-106 -283l106 -292h-90z" />
<glyph unicode="&#x203a;" horiz-adv-x="438" d="M96 240l107 282l-107 293h90l172 -293l-172 -282h-90z" />
<glyph unicode="&#x205f;" horiz-adv-x="454" />
<glyph unicode="&#x20ac;" d="M39 475l47 119h94q-4 62 -4 100v29h-137l47 117h100q37 261 184 407t373 146q111 0 185 -31t164 -115l-68 -174q-63 97 -125.5 135.5t-157.5 38.5q-302 0 -366 -407h555l-47 -117h-521v-45q0 -38 3 -84h464l-45 -119h-401q34 -170 127 -263t231 -93q87 0 153 31.5 t126 101.5v-189q-73 -53 -133.5 -71.5t-159.5 -18.5q-321 0 -471 326q-37 78 -57 176h-160z" />
<glyph unicode="&#x2122;" horiz-adv-x="1591" d="M2 1268v98h594v-98h-236v-680h-124v680h-234zM688 588v778h172l238 -590l233 590h170v-778h-121v618l-247 -618h-86l-250 618v-618h-109z" />
<glyph unicode="&#x25fc;" horiz-adv-x="1013" d="M0 0v1014h1014v-1014h-1014z" />
</font>
</defs>
</svg>
